<?xml version="1.0" encoding="utf-8"?>
<!-- Generator: Adobe Illustrator 16.0.4, SVG Export Plug-In . SVG Version: 6.00 Build 0)  -->
<!DOCTYPE svg PUBLIC "-//W3C//DTD SVG 1.1//EN" "http://www.w3.org/Graphics/SVG/1.1/DTD/svg11.dtd">
<svg version="1.1" id="Layer_1" xmlns="http://www.w3.org/2000/svg" xmlns:xlink="http://www.w3.org/1999/xlink" x="0px" y="0px"
	 width="50px" height="50px" viewBox="0 0 50 50" style="enable-background:new 0 0 50 50;" xml:space="preserve">
<style type="text/css">
<![CDATA[
	.st0{fill:#FFFFFF;}
	.st1{fill:#652365;}
]]>
</style>
<polygon class="st1" points="1.51,17.082 24.987,41.083 48.49,17.082 42.599,11.191 7.475,11.118 "/>
<path id="_x33_2" class="st0" d="M38.432,15.39c-0.82,0.356-1.701,0.599-2.622,0.711c-0.007-0.018-0.015-0.033-0.021-0.05
	c0.977-0.571,1.729-1.479,2.101-2.566c-0.282,0.173-1.646,0.941-2.976,1.19c-0.867-0.952-2.115-1.549-3.505-1.549
	c-2.935,0-4.742,2.408-4.742,4.743c0,0.181,0.086,0.934,0.102,0.977c-3.943-0.085-7.439-1.983-9.691-4.893
	c-1.613,2.936,0.077,5.48,1.234,6.389c-0.673-0.011-1.312-0.156-1.895-0.41c0.123,2.258,1.756,4.113,3.907,4.574
	c-0.862,0.242-1.896,0.058-2.294-0.046c0.635,1.89,2.377,3.271,4.455,3.372c-3.181,2.337-6.61,2.099-6.666,2.098
	c2.016,1.208,4.375,1.919,6.896,1.902c9.237-0.06,13.981-8.258,13.418-14.142C37.143,17.22,37.96,16.402,38.432,15.39z"/>
<g>
</g>
<g>
</g>
<g>
</g>
<g>
</g>
<g>
</g>
<g>
</g>
</svg>
