<?xml version="1.0" encoding="utf-8"?>
<!-- Generator: Adobe Illustrator 16.0.4, SVG Export Plug-In . SVG Version: 6.00 Build 0)  -->
<!DOCTYPE svg PUBLIC "-//W3C//DTD SVG 1.1//EN" "http://www.w3.org/Graphics/SVG/1.1/DTD/svg11.dtd">
<svg version="1.1" id="Layer_1" xmlns="http://www.w3.org/2000/svg" xmlns:xlink="http://www.w3.org/1999/xlink" x="0px" y="0px"
	 width="100.166px" height="100.166px" viewBox="0 0 100.166 100.166" enable-background="new 0 0 100.166 100.166"
	 xml:space="preserve">
<g>
	<polygon fill="#642265" points="26.739,75.082 40.436,75.082 44,69.191 32.704,69.118 	"/>
	<polygon fill="#642265" points="73.72,75.082 59.78,75.082 56.218,69.191 67.828,69.191 	"/>
	<polygon fill="#642265" points="42.691,75.082 57.744,75.082 54.399,69.118 45.963,69.118 	"/>
	<polygon fill="#642265" points="42.691,76.9 57.744,76.9 50.216,99.083 	"/>
	<polygon fill="#642265" points="40.436,76.9 28.034,76.9 47.16,96.027 	"/>
	<polygon fill="#642265" points="59.78,76.9 72.4,76.9 53.274,96.027 	"/>
</g>
<g>
	<polygon fill="#642265" points="32.717,31.355 44.013,31.282 40.448,25.392 26.752,25.392 	"/>
	<polygon fill="#642265" points="67.842,31.282 56.231,31.282 59.794,25.392 73.731,25.392 	"/>
	<polygon fill="#642265" points="45.976,31.355 54.413,31.355 57.758,25.392 42.704,25.392 	"/>
	<polygon fill="#642265" points="50.229,1.39 57.758,23.573 42.704,23.573 	"/>
	<polygon fill="#642265" points="47.173,4.447 28.047,23.573 40.448,23.573 	"/>
	<polygon fill="#642265" points="53.288,4.447 72.413,23.573 59.794,23.573 	"/>
</g>
<g>
	<polygon fill="#642265" points="75.082,73.734 75.082,60.038 69.191,56.474 69.116,67.77 	"/>
	<polygon fill="#642265" points="75.082,26.753 75.082,40.692 69.191,44.255 69.191,32.645 	"/>
	<polygon fill="#642265" points="75.082,57.783 75.082,42.729 69.116,46.073 69.116,54.512 	"/>
	<polygon fill="#642265" points="76.9,57.783 76.9,42.729 99.083,50.255 	"/>
	<polygon fill="#642265" points="76.9,60.038 76.9,72.438 96.024,53.313 	"/>
	<polygon fill="#642265" points="76.9,40.692 76.9,28.072 96.024,47.198 	"/>
</g>
<g>
	<polygon fill="#642265" points="31.355,67.757 31.281,56.462 25.39,60.025 25.39,73.722 	"/>
	<polygon fill="#642265" points="31.281,32.631 31.281,44.242 25.39,40.679 25.39,26.741 	"/>
	<polygon fill="#642265" points="31.355,54.498 31.355,46.061 25.39,42.715 25.39,57.77 	"/>
	<polygon fill="#642265" points="1.389,50.243 23.572,42.715 23.572,57.77 	"/>
	<polygon fill="#642265" points="4.447,53.301 23.572,72.426 23.572,60.025 	"/>
	<polygon fill="#642265" points="4.447,47.186 23.572,28.06 23.572,40.679 	"/>
</g>
<rect x="33.417" y="33.417" fill="#642265" width="33.332" height="33.332"/>
</svg>
