<?xml version="1.0" encoding="utf-8"?>
<!-- Generator: Adobe Illustrator 16.0.4, SVG Export Plug-In . SVG Version: 6.00 Build 0)  -->
<!DOCTYPE svg PUBLIC "-//W3C//DTD SVG 1.1//EN" "http://www.w3.org/Graphics/SVG/1.1/DTD/svg11.dtd">
<svg version="1.1" id="Layer_1" xmlns="http://www.w3.org/2000/svg" xmlns:xlink="http://www.w3.org/1999/xlink" x="0px" y="0px"
	 width="100.166px" height="100.166px" viewBox="0 0 100.166 100.166" style="enable-background:new 0 0 100.166 100.166;"
	 xml:space="preserve">
<style type="text/css">
<![CDATA[
	.st0{fill:#642265;}
]]>
</style>
<rect x="34.041" y="34.041" class="st0" width="32.161" height="32.161"/>
<g>
	<polygon class="st0" points="27.691,74.875 40.261,74.875 44.016,68.668 34.436,68.668 	"/>
	<polygon class="st0" points="73.214,74.875 60.646,74.875 56.891,68.668 66.471,68.668 	"/>
	<polygon class="st0" points="42.637,74.875 58.5,74.875 54.975,68.591 46.085,68.591 	"/>
	<polygon class="st0" points="42.637,76.791 58.5,76.791 50.568,100.166 	"/>
	<polygon class="st0" points="40.261,76.791 27.691,76.791 48.077,98.863 	"/>
	<polygon class="st0" points="60.646,76.791 73.214,76.791 52.828,98.863 	"/>
</g>
<g>
	<polygon class="st0" points="74.875,73.011 74.875,60.442 68.668,56.687 68.668,66.267 	"/>
	<polygon class="st0" points="74.875,27.487 74.875,40.057 68.668,43.812 68.668,34.231 	"/>
	<polygon class="st0" points="74.875,58.066 74.875,42.202 68.591,45.728 68.591,54.617 	"/>
	<polygon class="st0" points="76.791,58.066 76.791,42.202 100.166,50.135 	"/>
	<polygon class="st0" points="76.791,60.442 76.791,73.011 98.863,52.625 	"/>
	<polygon class="st0" points="76.791,40.057 76.791,27.487 98.863,47.873 	"/>
</g>
<g>
	<polygon class="st0" points="25.291,73.088 25.291,60.519 31.498,56.764 31.498,66.344 	"/>
	<polygon class="st0" points="25.291,27.564 25.291,40.133 31.498,43.889 31.498,34.309 	"/>
	<polygon class="st0" points="25.291,58.144 25.291,42.279 31.575,45.805 31.575,54.694 	"/>
	<polygon class="st0" points="23.375,58.144 23.375,42.279 0,50.211 	"/>
	<polygon class="st0" points="23.375,60.519 23.375,73.088 1.303,52.702 	"/>
	<polygon class="st0" points="23.375,40.133 23.375,27.564 1.303,47.95 	"/>
</g>
<g>
	<polygon class="st0" points="27.155,25.291 39.724,25.291 43.479,31.498 33.899,31.498 	"/>
	<polygon class="st0" points="72.678,25.291 60.109,25.291 56.354,31.498 65.935,31.498 	"/>
	<polygon class="st0" points="42.1,25.291 57.964,25.291 54.438,31.575 45.549,31.575 	"/>
	<polygon class="st0" points="42.1,23.375 57.964,23.375 50.031,0 	"/>
	<polygon class="st0" points="39.724,23.375 27.155,23.375 47.541,1.303 	"/>
	<polygon class="st0" points="60.109,23.375 72.678,23.375 52.292,1.303 	"/>
</g>
<g>
</g>
<g>
</g>
<g>
</g>
<g>
</g>
<g>
</g>
<g>
</g>
</svg>
